# xmcd
#
# Track frame offsets: 
#        150
#        18425
#        37340
#        54660
#        73440
#        90217
#        111229
#
# Disc length: 1733 seconds
#
# Revision: 0
# Processed by: cddbd v1.5.2PL0 Copyright (c) Steve Scherf et al.
# Submitted via: ExactAudioCopy v0.99pb4
#
DISCID=6006c307
DTITLE=Lil Coco - You
DYEAR=2006
DGENRE=R&B
TTITLE0=Move and Shake
TTITLE1=14
TTITLE2=Familiar Smile
TTITLE3=What's Up
TTITLE4=Make It Right
TTITLE5=Hands Up
TTITLE6=Didn't I
EXTD=
EXTT0=
EXTT1=
EXTT2=
EXTT3=
EXTT4=
EXTT5=
EXTT6=
PLAYORDER=
